PathFileType	4	(X/Y/Z)	s01c0202.trc
DataRate	CameraRate	NumFrames	NumMarkers	Units	OrigDataRate	OrigDataStartFrame	OrigNumFrames
200	200	6	48	mm	200	1750	2000
Frame#	Time	racr			lacr			c7			jug			rlel			rdr			llel			ldr			s2			lic			ric			lasi			rasi			rpsi			lpsi			rgt			lgt			rth1			rth2			rth3			rth4			rlfc			rsh1			rsh2			rsh3			rsh4			rlmal			rmmal			rcal			rtoe			rmt5			lth1			lth2			lth4			lth3			llfc			lsh1			lsh2			lsh3			lsh4			llmal			lmmal			lcal			ltoe			lmt5			SBIKE			LBIKE			RBIKE			
		X1	Y1	Z1	X2	Y2	Z2	X3	Y3	Z3	X4	Y4	Z4	X5	Y5	Z5	X6	Y6	Z6	X7	Y7	Z7	X8	Y8	Z8	X9	Y9	Z9	X10	Y10	Z10	X11	Y11	Z11	X12	Y12	Z12	X13	Y13	Z13	X14	Y14	Z14	X15	Y15	Z15	X16	Y16	Z16	X17	Y17	Z17	X18	Y18	Z18	X19	Y19	Z19	X20	Y20	Z20	X21	Y21	Z21	X22	Y22	Z22	X23	Y23	Z23	X24	Y24	Z24	X25	Y25	Z25	X26	Y26	Z26	X27	Y27	Z27	X28	Y28	Z28	X29	Y29	Z29	X30	Y30	Z30	X31	Y31	Z31	X32	Y32	Z32	X33	Y33	Z33	X34	Y34	Z34	X35	Y35	Z35	X36	Y36	Z36	X37	Y37	Z37	X38	Y38	Z38	X39	Y39	Z39	X40	Y40	Z40	X41	Y41	Z41	X42	Y42	Z42	X43	Y43	Z43	X44	Y44	Z44	X45	Y45	Z45	X46	Y46	Z46	X47	Y47	Z47	X48	Y48	Z48	
1750	8.7500	493.166779	1329.326538	-119.206390	505.673828	1315.507568	-458.434082	456.136230	1404.413696	-292.090088	463.947144	1240.174927	-284.539368	512.432251	1061.608521	0.235270	679.951050	876.588074	-57.569447	516.133179	1037.667603	-554.492493	666.334290	870.617065	-435.474915	-74.579033	1184.915771	-261.899353	98.126869	1161.100708	-434.582428	97.680542	1183.373535	-115.431999	84.287033	1104.357666	-416.136749	111.677307	1135.895996	-144.150711	-37.843269	1222.723877	-216.586411	-43.314869	1216.772705	-322.475555	35.742321	1092.314453	-66.053818	1.356739	1027.498047	-449.889099	144.460968	1020.963806	-46.249306	222.109909	991.447144	-47.792221	303.571289	952.346863	-57.567772	243.314835	1039.478394	-67.996368	372.632416	873.503113	-78.787842	280.069061	801.449097	-54.842159	220.968414	740.497131	-62.643566	153.697586	684.112732	-78.798729	256.391174	707.686462	-98.813545	60.813427	597.653381	-101.973564	104.375633	597.512756	-180.624191	5.016603	577.998352	-156.603027	257.662598	481.925079	-134.758942	147.682098	484.765778	-67.906281	37.828407	904.376343	-453.693451	93.465027	834.942993	-453.791962	137.580048	868.990234	-454.878937	142.507111	767.008850	-433.559357	200.995605	663.817810	-417.404510	165.380615	556.833984	-445.770142	172.935379	470.361877	-438.715485	178.237762	385.621765	-423.968719	229.506821	477.961182	-415.084320	186.012115	257.638672	-403.761200	0.000000	0.000000	-0.000000	145.599976	225.151993	-362.747253	421.792145	201.436996	-373.899567	316.109833	180.214981	-438.856689	-224.857971	892.350830	-252.714462	-12.659906	84.578873	-456.111633	-21.662401	80.904442	-56.049229	
1751	8.7550	492.077698	1329.413940	-119.197243	504.474243	1315.761230	-458.274353	454.860352	1404.461182	-291.853912	462.868805	1240.228271	-284.518250	512.477112	1061.726929	0.054994	679.983826	876.558044	-57.655960	516.004883	1038.035278	-554.163513	666.358948	870.668091	-435.445374	-75.424179	1184.239380	-261.362091	97.226204	1161.002808	-434.474426	96.735291	1182.849487	-115.197937	83.571404	1104.274414	-416.144806	110.928780	1135.515991	-144.104431	-38.727791	1222.043213	-216.347839	-44.189472	1216.263916	-322.245392	35.222721	1091.590942	-65.981651	0.682029	1027.195801	-449.849731	144.148605	1020.465149	-46.512791	221.941772	991.130249	-48.155785	303.477234	952.251831	-58.093895	242.977539	1039.238892	-68.311234	372.751129	873.762817	-79.497757	280.173035	801.635437	-55.317123	221.061325	740.646729	-63.040661	153.826248	684.232544	-79.037643	256.494843	707.863525	-99.220428	60.915207	597.751526	-102.043762	104.436386	597.533630	-180.729828	5.091092	578.021484	-156.613693	257.773499	482.045349	-134.780533	147.793198	484.866272	-67.925049	37.512096	904.053589	-453.702148	93.309189	834.717407	-453.793915	137.337006	868.879639	-454.888855	142.511490	766.921997	-433.507843	201.082718	663.737061	-417.414795	165.418427	556.753723	-445.778290	172.932510	470.283386	-438.753906	178.204056	385.523499	-423.988220	229.493362	477.833130	-415.100983	185.888199	257.570251	-403.778290	0.000000	0.000000	-0.000000	145.469055	225.058334	-362.752686	421.664490	201.385818	-373.900696	315.956970	180.129990	-438.848175	-224.890076	892.353088	-252.730713	-12.652009	84.571472	-456.141388	-21.659006	80.898994	-56.043148	
1752	8.7600	491.048157	1329.463013	-119.174820	503.226349	1316.072632	-458.098816	453.560516	1404.546875	-291.630096	461.818481	1240.366455	-284.445953	512.523682	1061.877197	-0.101278	680.008179	876.544800	-57.725185	515.910889	1038.435181	-553.774109	666.388916	870.723145	-435.376495	-76.260872	1183.563232	-261.582764	96.284103	1160.933350	-434.409607	95.757172	1182.267456	-114.913803	82.748703	1104.182007	-416.122986	110.256210	1135.072510	-143.904648	-39.614174	1221.421631	-216.111450	-45.160099	1215.734009	-321.970093	34.718544	1090.854370	-65.893204	0.049480	1026.806763	-449.807892	143.886871	1019.950439	-46.734020	221.732178	990.851135	-48.526505	303.374023	952.203796	-58.648434	242.643112	1039.065796	-68.619347	372.745819	874.005310	-80.168274	280.291626	801.858398	-55.792530	221.181183	740.878906	-63.438084	153.981049	684.406677	-79.291786	256.612610	708.097107	-99.605446	61.029865	597.850891	-102.070435	104.525597	597.571594	-180.829681	5.172543	578.071655	-156.636246	257.908051	482.143463	-134.804367	147.929626	484.966461	-67.947968	37.173279	903.720398	-453.702911	93.105095	834.451233	-453.763550	137.070541	868.751465	-454.887451	142.692490	766.886536	-433.165649	201.141251	663.651550	-417.423462	165.429245	556.676208	-445.803070	172.906219	470.166016	-438.766510	178.145126	385.422119	-424.004028	229.474670	477.705872	-415.151825	185.752930	257.483276	-403.794861	0.000000	0.000000	-0.000000	145.325150	224.955017	-362.755859	421.498505	201.324936	-373.883301	315.815002	180.078751	-438.853424	-224.906326	892.362427	-252.745972	-12.659904	84.571274	-456.128479	-21.660992	80.914757	-56.056183	
1753	8.7650	489.986084	1329.522217	-119.116989	502.054779	1316.420166	-457.941010	452.278198	1404.624512	-291.478943	460.813873	1240.418823	-284.359558	512.554199	1062.009033	-0.265882	680.058533	876.537048	-57.811516	515.810669	1038.706665	-553.367798	666.413330	870.771179	-435.285095	-77.057953	1182.862671	-260.914398	95.293900	1160.852417	-434.297882	94.902245	1181.780273	-114.617493	81.935875	1104.022583	-416.188385	109.522438	1134.637451	-143.861099	-40.495659	1220.738770	-215.890579	-46.047188	1215.259766	-321.741669	34.179684	1090.175293	-65.835655	-0.606607	1026.429443	-449.726807	143.659058	1019.557068	-46.922386	221.506592	990.614136	-48.909126	303.250244	952.210693	-59.219387	242.258469	1038.943848	-68.981537	372.771667	874.193481	-80.868828	280.451477	802.125000	-56.319607	221.348038	741.130493	-63.836811	154.140961	684.612000	-79.508240	256.695648	708.308350	-99.993843	61.183193	597.967896	-102.139656	104.638695	597.624817	-180.926315	5.304269	578.131104	-156.645981	258.059875	482.235016	-134.833710	148.077133	485.062836	-67.956253	36.810680	903.378418	-453.694885	92.887451	834.208191	-453.776703	136.774933	868.559204	-454.883759	142.599777	766.742004	-433.124329	201.152420	663.572998	-417.437714	165.416229	556.586121	-445.837219	172.859192	470.051514	-438.776184	178.063278	385.284973	-424.023590	229.407867	477.564453	-415.152710	185.590851	257.394775	-403.821838	0.000000	0.000000	-0.000000	145.152100	224.849258	-362.770111	421.341980	201.231491	-373.895630	315.665894	179.983383	-438.849731	-224.931290	892.385986	-252.767288	-12.658501	84.577469	-456.131592	-21.667542	80.909279	-56.047562	
1754	8.7700	488.920197	1329.569824	-119.115578	500.830902	1316.684937	-457.796295	450.975159	1404.718262	-291.251434	459.677246	1240.527832	-284.366730	512.598999	1062.197632	-0.452918	680.104248	876.556458	-57.864803	515.807190	1039.025635	-552.976685	666.444275	870.791870	-435.175568	-77.897728	1182.174316	-260.642395	94.486259	1160.744751	-434.321838	93.927429	1181.290039	-114.407532	81.162483	1103.894287	-416.172211	108.751923	1134.315430	-143.775330	-41.416393	1220.122803	-215.625336	-46.998016	1214.703735	-321.454742	33.671368	1089.550781	-65.762497	-1.366616	1026.084595	-450.032623	143.406281	1019.147949	-47.127636	221.323395	990.457031	-49.290928	303.186066	952.256897	-59.729084	241.928680	1038.869507	-69.301041	372.821442	874.547424	-81.587555	280.563721	802.428040	-56.883270	221.505661	741.441223	-64.194054	154.313782	684.854858	-79.731781	256.851288	708.530762	-100.404205	61.364735	598.095764	-102.192726	104.774040	597.692871	-181.022552	5.445329	578.220520	-156.648941	258.223297	482.343994	-134.837891	148.241028	485.172516	-67.972984	36.424038	903.030151	-453.677338	92.627884	833.878601	-453.776611	136.455673	868.373413	-454.905029	142.453430	766.565796	-433.104401	201.133270	663.476868	-417.441071	165.382980	556.489380	-445.845215	172.789444	469.931274	-438.794342	177.936539	385.142395	-424.033966	229.340363	477.418823	-415.176575	185.409622	257.298096	-403.848450	0.000000	0.000000	-0.000000	144.961182	224.739761	-362.780182	421.138672	201.141159	-373.898804	315.471588	179.895905	-438.842651	-224.844040	892.479980	-252.385239	-12.665980	84.596748	-456.114258	-21.655165	80.888260	-56.050144	
1755	8.7750	487.887543	1329.598511	-119.081299	499.612274	1316.959717	-457.625122	449.631042	1404.842896	-291.071198	458.714050	1240.704956	-284.217896	512.641602	1062.367065	-0.634533	680.147522	876.561035	-57.912956	516.080078	1039.561035	-552.597717	666.483093	870.797607	-435.029175	-78.678970	1181.615845	-260.608246	93.494400	1160.652588	-434.249146	93.023666	1180.841553	-114.153473	80.370865	1103.796509	-416.142059	108.125336	1133.789917	-143.580078	-42.317497	1219.503296	-215.386963	-47.909046	1214.236084	-321.253113	33.197021	1088.926880	-65.669510	-2.046502	1025.650757	-449.965302	143.128967	1018.779541	-47.362503	221.159348	990.336243	-49.627243	303.103851	952.365417	-60.246971	241.589096	1038.806641	-69.649529	372.897430	874.937073	-82.230026	280.654541	802.756714	-57.351097	221.681992	741.693176	-64.555565	154.475021	685.074097	-79.987198	256.974426	708.777283	-100.821182	61.562538	598.216431	-102.257645	104.929466	597.770447	-181.118805	5.624393	578.342224	-156.654572	258.415527	482.445465	-134.841064	148.462494	485.299500	-67.985603	36.014046	902.677979	-453.649872	92.263557	833.549927	-453.728760	136.092438	868.160156	-454.894135	142.273636	766.374573	-433.072601	201.094894	663.376282	-417.435333	165.319138	556.379761	-445.872070	172.698151	469.822815	-438.803833	177.792267	384.984802	-424.047546	229.229431	477.286346	-415.154602	185.208771	257.192047	-403.880371	0.000000	0.000000	-0.000000	144.747086	224.625275	-362.797577	420.932220	201.047073	-373.898560	315.282349	179.804428	-438.833221	-224.859268	892.473145	-252.404175	-12.661572	84.564095	-456.125641	-21.657261	80.901878	-56.049690	
